<?xml version="1.0" encoding="utf-8"?>
<!-- Generator: Adobe Illustrator 21.0.2, SVG Export Plug-In . SVG Version: 6.00 Build 0)  -->
<svg version="1.1" id="Layer_1" xmlns="http://www.w3.org/2000/svg" xmlns:xlink="http://www.w3.org/1999/xlink" x="0px" y="0px"
	 viewBox="0 0 1162.4 452.3" style="enable-background:new 0 0 1162.4 452.3;" xml:space="preserve">
<path class="st0" d="M1153.3,164.1c0,3.5-3.2,5.8-5.2,6.1l5.5,9.3h-4.1l-5.2-9h-3.8v9h-3.8v-21.9h9.3
	C1150.4,157.6,1153.3,160.6,1153.3,164.1L1153.3,164.1z M1149.6,164.4c0-2.3-1.7-3.2-4.1-3.2h-4.9v6.4h4.9
	C1147.8,167.6,1149.6,166.7,1149.6,164.4L1149.6,164.4z M1126.5,168.6c0-9.9,8-18,17.9-18c9.9,0,17.9,8.1,17.9,18
	c0,9.9-8,18-17.9,18C1134.6,186.6,1126.5,178.6,1126.5,168.6L1126.5,168.6z M1144.5,183.7c8.3,0,15.1-6.8,15.1-15.1
	c0-8.3-6.8-15.1-15.1-15.1c-8.3,0-15.1,6.8-15.1,15.1C1129.4,177,1136.2,183.7,1144.5,183.7L1144.5,183.7z M396.9,176.8
	c0,17-13.5,30.5-30.4,30.5c-8,0-14.6-6.9-14.6-14.7c0-7.5,4-7.6,4-12.7c0-3.7-3.2-6.9-6.9-6.9c-6.3,0-11.2,4.9-11.2,11.2v78.8
	c0,1.4,1.2,2.3,2.3,2.6l7.8,2.3c1.1,0.3,2.6,1.2,2.6,2.6v6.3c0,1.4-1.1,2.6-2.6,2.6h-50c-1.4,0-2.6-1.1-2.6-2.6v-35.6
	c-14.1,14.6-42.7,42.2-57.6,42.2c-16.5,0-14.4-17.8-26.8-17.8c-10.8,0-11.5,17.8-41.6,17.8c-32.4,0-58.9-30.5-58.9-68.5
	c0-37.7,26.4-68.5,58.9-68.5c26.5,0,32.6,14.4,39.1,14.4c4,0,5.7-3.2,6.6-7.8c0.3-1.4,1.4-2.6,3.2-2.6h41.6c1.4,0,2.6,1.2,2.6,2.6
	v6.3c0,1.4-1.4,2.3-2.6,2.6l-7.8,2.3c-1.1,0.3-2.3,1.2-2.3,2.6v69.6c0,4.6,4.3,8.3,8.9,8.3c8.3,0,26.2-14.8,36.8-24.2v-49.1
	c0-3.2-2.4-4.6-5-4.6c-3.2,0-3.3,2.9-7.4,2.9c-3.7,0-6-3.2-6-6c0-5.5,9.8-17.3,25-17.3c26.3,0,22.3,19.6,31.6,19.6
	c8.5,0,9.9-19.6,33-19.6C383.4,146.6,396.9,159.9,396.9,176.8L396.9,176.8z M207,194.1c0-8.6-11.8-17.3-22.7-17.3
	c-20.1,0-33,15.8-33,38.3c0,22.4,12.9,38.6,33,38.6c10.9,0,22.7-8.6,22.7-17.3V194.1L207,194.1z M410,236.5c0,33.5,25.4,43,42.4,43
	h87.2c19.8,0,38.6-14.4,38.6-37.7c0-35.2-54.2-32.1-54.2-52.3c0-8.2,8-11.1,17.9-11.1c7.4,0,17.6,3.3,23.4,7.6c2,1.5,3.6,0,4.1-1.1
	l13.4-30.7c0.6-1.3-0.1-3.5-2.3-3.5h-62.7c-17.1,0-32.2,14.8-32.2,33.1c0,36.3,47.1,29.9,47.1,54.5c0,9.5-7.6,17.7-18.1,17.7
	c-20.8,0-29.6-13.9-30.5-22c-0.2-1.6-2.2-2.6-3.5-2.1l-8.6,3.4c-1.6,0.7-2,2.9-1.1,4c1.5,1.8,2.3,3.6,2.3,6.5
	c0,5.6-4.4,10.3-10.3,10.3c-6,0-10.2-5.1-10.2-10.3V65.2c0-1.4-1.1-2.6-2.6-2.6h-50c-1.4,0-2.6,1.1-2.6,2.6v6.3
	c0,1.4,1.5,2.3,2.6,2.6l7.8,2.3c1.1,0.3,2.3,1.1,2.3,2.6V236.5L410,236.5z M1113.9,153.2v6.3c0,1.4-1.5,2.3-2.6,2.6l-7.8,2.3
	c-1.1,0.3-2.3,1.2-2.3,2.6v132.3c0,32.2-27.1,58.1-59.2,58.1c-21.8,0-41.1-10.1-50.8-26.8c-13.2,23.6-56,74.2-180.6,74.2
	c-68.6,0-185.2-34-245.8-34c-83.2,0-138.1,22.6-195.3,80c-1.3,1.3-2.4,1.7-4.1,0.7L259,393.5c-1.4-0.7-2-2.8-0.6-4
	c70.4-59.8,172.3-90.6,244.4-90.6c141,0,239.2,69.9,354.9,69.9c97.6,0,126.1-48.9,126.1-65.3c0-1.7,1.4-2.6,2.6-2.6h9.8
	c1.1,0,2.6,0.9,2.6,2.6c0,16.4,13.5,28.8,30.4,28.8c16.9,0,29.6-13.2,29.6-31.1v-25.3c0-2.9-1.4-4.6-4.5-4.6
	c-4.4,0-8.8,12.4-33.5,12.4c-32.4,0-58.9-30.5-58.9-68.5c0-37.7,26.4-68.5,58.9-68.5c26.5,0,32.5,14.4,39.1,14.4
	c4,0,5.7-3.2,6.6-7.8c0.3-1.4,1.4-2.6,3.2-2.6h41.6C1112.8,150.7,1113.9,151.8,1113.9,153.2L1113.9,153.2L1113.9,153.2z
	 M1058.8,194.1c0-8.6-11.8-17.3-22.7-17.3c-20.1,0-33,15.8-33,38.3c0,22.4,12.9,38.6,33,38.6c10.9,0,22.7-8.6,22.7-17.3V194.1
	L1058.8,194.1z M973.5,143.7c0,26.5-16.7,40.6-30.4,40.6c-16.3,0-14.1-11.2-24.7-11.2c-6.3,0-12.1,4.9-12.1,11.2v78.8
	c0,1.4,1.2,2.3,2.3,2.6l7.7,2.3c1.1,0.3,2.6,1.2,2.6,2.6v6.3c0,1.4-1.1,2.6-2.6,2.6h-50c-1.4,0-2.6-1.1-2.6-2.6v-91.5
	c0-7.2-4.6-10.4-10.3-10.4c-5.3,0-13.5,4.7-21,9.9c-0.6,28.3-26,49.7-65.5,49.7c0,5.5,12.4,25.6,36.8,25.6c14.3,0,25.1-5.2,32.6-15
	c3.4-4.5,11.6-2.7,7.8,6.2c-3.7,8.6-20.8,32.1-55.6,32.1c-32.7,0-60.1-22.8-66.8-53.9c-7.9-2.3-15.8-6.1-21.6-9.9v24
	c0,20.4-14.1,35.7-36.2,35.7h-20.7c-30.4,0-49.4-17-49.4-43.4V79c0-1.4-1.2-2.2-2.3-2.6l-7.7-2.3c-1.1-0.3-2.6-1.1-2.6-2.6v-6.3
	c0-1.4,1.2-2.6,2.6-2.6h50c1.4,0,2.6,1.1,2.6,2.6v174.6c0,12.7,12.3,18.1,21.3,18.1c9.8,0,21.2-3.7,21.2-17.3v-34.5l-17.2-10.4
	c-2.3-1.4-4-3.2-4-6.6v-36c0-1.4,1.1-2.6,2.6-2.6h37.3c1.4,0,2.6,1.2,2.6,2.6v48.8c5.5,3.6,13.1,7.8,20.1,10.8
	c1.1-37,30.8-66.3,68.3-66.3c20.9,0,34.3,9.8,40.2,21.9c12.4-9.6,31.2-21.9,46.5-21.9c17.1,0,17.2,14.1,25.6,14.1
	c2.9,0,5.2-2.6,5.2-5.5c0-3.5-1.7-6.2-1.7-9.5c0-6.3,6.3-12.1,13.2-12.1c12.4,0,19.5,12.9,30.2,12.9c4.6,0,10-4.6,10-11.5
	c0-6.6-7.6-16.9-14.9-23c-5-4.2,0.4-11.8,6.8-8.2C965.4,113.1,973.5,127.5,973.5,143.7L973.5,143.7z M807.5,185.5
	c0-3.7-1.1-13.2-13.2-13.2c-14.3,0-29.6,17.3-29.6,46.3C792.6,218.6,807.5,196.4,807.5,185.5L807.5,185.5z M915.7,25.7
	c-3.3,0-5.9-2.6-5.9-5.9v-12c0-4.3-3.5-7.9-7.8-7.9c-1.8,0-3.5,0.7-4.8,1.7c-5.1,4-12,5.2-18.3,2.7c-5.3-2.1-11.5-0.1-14.5,5
	c-3,5.1-1.6,11.5,2.9,15.1c5.2,4.2,7.7,10.8,6.8,17.2c-0.2,1.7,0,3.5,0.9,5c2.2,3.8,7,5,10.7,2.9l10.4-6c2.8-1.6,6.4-0.7,8,2.2
	c1.6,2.8,0.7,6.4-2.2,8.1l-10.4,6c-3.8,2.2-5,7-2.9,10.7c0.9,1.6,2.3,2.7,3.9,3.3c6,2.4,10.5,7.8,11.5,14.5c0.9,5.7,5.7,10,11.6,10
	c5.9,0,10.7-4.4,11.6-10c1-6.6,5.5-12.1,11.5-14.5c1.6-0.6,3-1.7,3.9-3.3c2.2-3.8,0.9-8.6-2.9-10.7l-10.4-6
	c-2.8-1.6-3.8-5.2-2.2-8.1c1.6-2.8,5.2-3.8,8-2.2l10.4,6c3.8,2.2,8.6,0.9,10.7-2.9c0.9-1.6,1.1-3.4,0.9-5c-0.9-6.4,1.5-13,6.8-17.2
	c4.5-3.6,5.8-10,2.9-15.1c-3-5.1-9.1-7.1-14.5-5c-6.2,2.5-13.2,1.3-18.3-2.7c-1.3-1.1-3-1.7-4.8-1.7c-4.3,0-7.8,3.5-7.8,7.9v12
	C921.6,23.1,919,25.7,915.7,25.7L915.7,25.7z M302.6,305.7c7.2-7.2-1.6-16.4-9.3-9.3c-23.4,21.7-57.2,35-91.6,35
	c-72.6,0-133.5-59.9-133.5-132.3c0-59.9,48-120.1,108.3-120.1c22,0,45.5,8.8,59.4,22.7c1.2,1.2,3.1,1.2,4.2-0.2l74-97.5
	c1.5-1.7,0.2-4-1.8-4H90.5c-2.2,0-4.4,0.9-5.9,2.3C33.5,48.2,0,108.1,0,177.2c0,102.2,81.7,181.3,177.8,181.3
	C225.8,358.5,271,337.2,302.6,305.7L302.6,305.7z"/>
</svg>
