<?xml version="1.0" encoding="utf-8"?>
<!-- Generator: Adobe Illustrator 21.0.2, SVG Export Plug-In . SVG Version: 6.00 Build 0)  -->
<svg version="1.1" id="Layer_1" xmlns="http://www.w3.org/2000/svg" xmlns:xlink="http://www.w3.org/1999/xlink" x="0px" y="0px"
	 viewBox="0 0 1180.4 500" style="enable-background:new 0 0 1180.4 500;" xml:space="preserve">
<path class="st0" d="M35.7,104.7c-20,0-33.7-12.8-33.7-31.3V1h18.9v72.2c0,11,7.1,16.9,15.6,16.9c8.6,0,15.5-5.9,15.5-16.9V1h17.5
	v72.4C69.4,91.9,55.7,104.7,35.7,104.7 M152.5,103.1l-33.7-54.9L150.7,1h-19.3l-29.3,46.6h-0.3V1H83v102h18.9V51.5h0.3l29.3,51.6
	H152.5z M24.4,193.4c30.4,2.2,43.1-13.2,43.1-31.7c0-18.1-11-31.7-37.3-31.7c-11.7,0-21.7,2.4-28.2,5.8v97.7h18.4v-40.3L24.4,193.4
	 M29.9,140.8c13.9,0,19.4,7,19.4,20.8c0,14.1-6.7,22.2-25.1,20.8l-3.9-0.3v-39.6C22.1,141.7,25.4,140.8,29.9,140.8 M103.4,235
	c22.4,0,33.3-17.8,33.3-41.4c0-23.9-10.7-41.5-33.3-41.5c-22.4,0-33.3,17.6-33.3,41.5C70.1,217.2,80.9,235,103.4,235 M103.4,163.5
	c12.9,0,15.3,14.7,15.3,30c0,15.1-2.4,29.2-15.3,29.2c-12.5,0-15.3-14.1-15.3-29.2C88.1,178.2,90.6,163.5,103.4,163.5 M246.8,153.5
	h-16l-12.3,51.6c-1.2,5.2-1.6,10.7-1.6,10.7h-0.3c0,0-0.6-5.5-1.9-10.5l-13.5-51.8h-15.2l-14.1,51.8c-1.6,6.1-2.1,10.5-2.1,10.5
	h-0.3c0,0-0.1-4.4-1.5-10.5l-11.7-51.8H138l22.3,79.9h16.3l14.1-50.1c1.5-5.2,1.8-10.2,1.8-10.2h0.3c0,0,0.1,5,1.6,10.2l13.8,50.1
	h16.3L246.8,153.5z M314.1,193c0.8-26.8-10.8-40.9-32.1-40.9c-20.9,0-34.1,15.1-34.1,41.2c0,27,14.4,41.7,37.1,41.7
	c12.2,0,20.8-2.5,26.4-5.6l-4.3-11.4c-4.3,2.2-11,4.4-20.2,4.4c-13.2,0-20.3-7.4-21.8-22.2L314.1,193z M281.4,163.2
	c10,0,15.7,6.5,15.7,22.7l-33.1,5C263.6,171.8,270.8,163.2,281.4,163.2 M361.4,152.2c-20.2-0.6-30.3,1.6-38.6,5.6v75.6h18.1V166
	c4.2-2.4,10.8-2.7,16.9-0.6L361.4,152.2z M77.4,363.9v-102H61.6v61.5c0,5.9,0.5,10.8,0.5,10.8h-0.3c0,0-2.1-4.6-5.5-10.4l-36.5-62
	H1.9v102h15.9v-65.4c0-6.1-0.6-11.9-0.6-11.9h0.3c0,0,2.5,5.6,5.9,11.4l38.8,65.8H77.4z M153.1,323.4c0.7-26.8-10.8-40.9-32.1-40.9
	c-20.9,0-34.2,15.1-34.2,41.2c0,27,14.4,41.7,37.1,41.7c12.2,0,20.8-2.5,26.4-5.6l-4.3-11.4c-4.3,2.2-11,4.4-20.2,4.4
	c-13.2,0-20.3-7.4-21.8-22.2L153.1,323.4z M120.4,293.6c10,0,15.7,6.5,15.7,22.7l-33.1,5C102.6,302.2,109.9,293.6,120.4,293.6
	 M187.4,364.8c4.3,0,7.6-0.9,9.2-1.6v-11.3c-1.5,0.5-2.7,0.7-4.3,0.7c-6.2,0-8.8-4.1-8.8-10.4v-46.7h13.1V284h-13.1v-22.7l-18.1,5
	V284h-8.9v11.6h8.9v47.6C165.4,354.2,171.6,364.8,187.4,364.8 M307.4,284h-16L279,335.6c-1.2,5.2-1.6,10.7-1.6,10.7h-0.3
	c0,0-0.6-5.5-1.9-10.5L261.6,284h-15.2l-14.1,51.8c-1.6,6.1-2.1,10.5-2.1,10.5H230c0,0-0.1-4.4-1.5-10.5L216.8,284h-18.3l22.3,79.9
	h16.3l14.1-50.1c1.5-5.2,1.8-10.2,1.8-10.2h0.3c0,0,0.1,5,1.6,10.2l13.8,50.1h16.3L307.4,284z M341.7,365.4
	c22.4,0,33.3-17.8,33.3-41.4c0-23.9-10.7-41.5-33.3-41.5c-22.4,0-33.3,17.6-33.3,41.5C308.4,347.6,319.2,365.4,341.7,365.4
	 M341.7,293.9c12.9,0,15.3,14.7,15.3,30c0,15.1-2.4,29.2-15.3,29.2c-12.5,0-15.3-14.1-15.3-29.2
	C326.4,308.6,328.9,293.9,341.7,293.9 M422.1,282.6c-20.2-0.6-30.3,1.6-38.6,5.6v75.6h18.1v-67.5c4.2-2.4,10.9-2.7,16.9-0.6
	L422.1,282.6z M492.2,363.9l-30.9-43.3L489,284h-18.4l-25.4,36.2h-0.3v-72.7h-18v116.4h18v-40.8h0.3l26.7,40.8H492.2z M516.1,365.2
	c17.5,0,28.5-11.3,28.5-24.3c0-9.4-3.6-17.4-19.2-23.6c-7-2.8-11.9-6.1-11.9-12.6c0-5.6,4-10.5,11.4-10.5c5.6,0,10.4,2.5,12.8,4.4
	l4.5-10.5c-5.2-3.4-11.9-5.6-20.8-5.6c-15.3,0-25.4,10.4-25.4,23.1c0,8.3,3.1,16.6,18.3,22.4c8.2,3.1,11.7,6.4,11.7,13.2
	c0,6.5-4.9,11.3-12.3,11.3c-6.5,0-12-2.2-15-4.6l-4.8,11.6C498.7,362.7,506.8,365.2,516.1,365.2 M382.3,6
	c-99.8,6.1-182.7,17.8-180.7,18.2c1.3,0.5,2.6,1,3.9,1.5c1.7,0.6,82.4-9,175.6-14.3c659-38.5,1060.2,152.9,411.3,301.5
	c-49.8,11.4-102.5,22.2-150.8,33.5c-11.1,2.6-28.5,6-31,9.4c-2.4,3.3,7.1,10.1,29.9,7.9c16.7-1.6,32.5-4.1,47.4-6.4
	c48.5-7.5,93.3-16.2,133.7-25.6C1464.4,183.7,1158.6,0,571.2,0C511,0,447.8,1.9,382.3,6 M380.7,13.4c55.7-3.2,109.5-4.7,160.9-4.7
	c541.4,0,813.5,166.5,240.3,297.4c-40.7,9.4-87.2,18.3-138.3,25c-8.5,1.1-28.2,4.1-38.6,3.8c-18-0.6-19.5-7.2-13.3-10
	c7.1-3.3,19.2-6.2,30.9-8.9c41.4-9.8,87-19,129.9-28.8C1321.1,158.6,978.8-12.4,379.5,18.7c-85,4.3-159.6,12.4-161.3,11.8
	c-1.3-0.5-2.6-1-3.9-1.5C212.4,28.6,289.1,18.5,380.7,13.4 M379.1,20.9c45.7-2.3,89.8-3.4,132-3.4c495.4,0,732,149,229.6,262.1
	c-34.5,7.8-74.1,15.3-117.6,20.7c-9.6,1.2-26,3.5-37.1,3.2c-16.3-0.5-19.5-6.2-15.9-9.2c3.7-3,17-6.1,27-8.6
	c35.4-8.7,75.9-16.7,113.9-25.2C1198,152.7,916.2,2.6,377.9,26.2C301.3,29.5,233,36,231.4,35.5c-1.3-0.5-2.6-1-4-1.5
	C225.5,33.6,295.8,25,379.1,20.9 M377.5,28.2c35.7-1.5,70.2-2.2,103.3-2.2c452.3,0,653.9,132.2,219.4,227.6
	c-30.8,6.8-67.9,13.7-108.1,17.7c-36,3.6-49.6-6.9-32.5-12.1c29.7-9,73.4-16.9,110.6-24.9C1079.3,147,856,17,376.3,33.5
	c-68.5,2.2-130.6,7.3-132.3,6.8c-1.3-0.5-2.6-1-3.9-1.5C238.2,38.4,302.4,31.2,377.5,28.2 M375.9,35.4c25.3-0.8,49.8-1.2,73.5-1.2
	c411.6,0,577.4,115.8,210,193.2c-23.2,4.9-50.2,9.5-79.6,12.5c-26.2,2.7-38.4,2.3-46.6-2.9c-5.5-3.6,4.4-8.6,16.5-11.9
	c22.7-6.2,52.2-11.6,79.4-17.2C961.3,141.4,796.5,31.2,374.7,40.8c-60.4,1.2-116.3,4.9-118,4.4c-1.3-0.5-2.6-1-3.9-1.5
	C250.9,43.2,308.9,37.5,375.9,35.4 M374.3,42.7c14.2-0.3,28.1-0.4,41.6-0.4c374.7,0,503.3,99.8,202.2,158.7
	c-20.3,4-52.9,9.4-80.5,9.6c-28.6,0.2-25.5-8.6-20.7-12.6c7.7-6.3,47.1-12.4,70.6-16.6C844,135.8,737.6,45.3,373.1,48
	c-52.4,0.2-102,2.4-103.7,1.9c-1.3-0.5-2.6-1-3.9-1.5C263.6,48,315.4,43.8,374.3,42.7 M372.7,50.1c1.3,0,2.6,0,3.9,0
	c344.5,0,432.3,84.3,198.9,123.4c-17.5,3-46.9,6.3-66.3,4.3c-17.4-1.8-23.9-7.6-17.1-11.8c8.8-5.4,29.7-9.2,52.6-12.2
	c179.5-23.6,133-94-173.1-98.3C347.7,55,324.1,55,307.2,55c-14.4,0-24,0.1-24.8-0.2c-1.3-0.5-2.6-1-3.9-1.5
	C276.6,52.9,322,50.2,372.7,50.1 M291.1,58.1c-1.4-0.4,20.7-1.2,49.9-1.2c9.4,0,19.6,0.1,30,0.3c291.2,6.1,322.3,71.4,162.4,89.3
	c-22.8,2.6-43.8,0.5-55.4-3c-12.5-3.8-14.6-9.1,5-13.2c19.7-4.1,49.8-4.7,67.5-9.3c15.7-4.1,21.7-9.3,22.7-14
	c5.7-25.2-103.4-39.8-203.4-44.4c-36.1-1.7-73.2-2.4-74.8-2.9C293.8,59.1,292.5,58.7,291.1,58.1 M303.7,62.9
	c-0.6-0.1,2.1-0.2,7.1-0.2c11.3,0,34.6,0.5,58.7,1.7c69.7,3.7,136.4,11.7,168.1,25.5c15.4,6.7,29.3,18.4-1.8,26.1
	c-13.4,3.3-45.6,8.7-62,5.3c-9.7-2-18.5-6.3-17.2-9.5c1.5-3.7,8.5-4.9,24.1-6.1c45.1-3.6,9.2-16-5.3-20.1
	c-26.5-7.4-66.8-12.2-107.1-16c-28-2.6-59-4.8-60.7-5.3C306.4,63.9,305.1,63.4,303.7,62.9 M18,480c19.2,0,26.9-14.2,26.9-33.2
	c0-19-8.3-32.3-27.6-32.3c-7.3,0-13.2,1.5-17.4,3.6v58.3C3.9,478.6,10.2,480,18,480 M17.7,422.2c10.6,0,15.3,7.9,15.3,24.4
	c0,17.3-4.3,25.2-15.2,25.2c-2.5,0-4.8-0.5-6.2-0.9v-47.8C13.3,422.5,15.2,422.2,17.7,422.2 M91.6,453.9c0.5-16.7-6.8-25.5-20-25.5
	c-13,0-21.3,9.4-21.3,25.7c0,16.8,9,26,23.1,26c7.6,0,12.9-1.6,16.5-3.5l-2.7-7.1c-2.7,1.4-6.8,2.8-12.6,2.8
	c-8.2,0-12.7-4.6-13.6-13.9L91.6,453.9z M71.3,435.3c6.2,0,9.8,4.1,9.8,14.2l-20.6,3.1C60.2,440.6,64.7,435.3,71.3,435.3
	 M99.1,479.1h11.3v-72.6H99.1V479.1z M125.7,420.7c3.5,0,6.2-2.5,6.2-5.5c0-3.1-2.7-5.6-6.2-5.6c-3.4,0-6.2,2.5-6.2,5.6
	C119.4,418.2,122.2,420.7,125.7,420.7 M120,479.1h11.3v-49.8H120V479.1z M179.4,429.3h-10.5l-9,32.2c-1,3.7-1.3,6.9-1.3,6.9h-0.2
	c0,0-0.2-3.2-1.2-6.9l-8.8-32.2h-12l16.3,49.8h10.7L179.4,429.3z M222.2,453.9c0.5-16.7-6.8-25.5-20-25.5c-13,0-21.3,9.4-21.3,25.7
	c0,16.8,9,26,23.1,26c7.6,0,12.9-1.6,16.5-3.5l-2.7-7.1c-2.7,1.4-6.8,2.8-12.6,2.8c-8.2,0-12.7-4.6-13.6-13.9L222.2,453.9z
	 M201.8,435.3c6.2,0,9.8,4.1,9.8,14.2l-20.6,3.1C190.7,440.6,195.2,435.3,201.8,435.3 M253.2,428.4c-12.6-0.4-18.9,1-24,3.5v47.2
	h11.3V437c2.6-1.5,6.8-1.7,10.5-0.4L253.2,428.4z M263.4,420.7c3.5,0,6.2-2.5,6.2-5.5c0-3.1-2.7-5.6-6.2-5.6c-3.4,0-6.2,2.5-6.2,5.6
	C257.2,418.2,260,420.7,263.4,420.7 M257.8,479.1H269v-49.8h-11.3V479.1z M317.5,479.1v-35.5c0-8-4.9-15.3-19.8-15.3
	c-8.4,0-14.8,1.4-19.5,3.6v47.2h11.3v-42.3c2.1-0.8,4.1-1.4,7.8-1.4c7.1,0,9,4.3,9,8.3v35.3H317.5z M344.3,500
	c12.4,0,20.4-6.8,20.4-20.2v-47.9c-3.1-2-8.9-3.6-16.2-3.6c-16.1,0-24.1,10.7-24.1,26.9c0,15.1,8.1,24.3,20.1,24.3
	c4.3,0,7.4-0.8,9.3-1.9v3.1c0,6.7-3.1,11.2-11.5,11.2c-4.6,0-9.1-1.4-11.9-3l-3.1,7.4C330.9,498.6,337.2,500,344.3,500 M353.8,471.4
	c-1.6,0.9-3.8,1.6-6.4,1.6c-8.3,0-11.8-6.2-11.8-18.3c0-12.5,3.6-19.7,12.4-19.7c2.4,0,4.3,0.3,5.8,1.1V471.4z M429.9,429.3h-4.5
	L413,468.6c-0.9,3.1-1.4,5.6-1.4,5.6h-0.2c0,0-0.3-2.6-1.2-5.6l-12-39.3h-5.5l16.8,49.8l-8.3,19.9h5.5L429.9,429.3z M452.2,480
	c13,0,18.1-11.3,18.1-25.8c0-14.8-5.1-25.9-18.3-25.9c-12.9,0-18.1,11.1-18.1,25.9C433.9,468.7,439.1,480,452.2,480 M452.2,431.6
	c11.1,0,13.1,12.2,13.1,22.7c0,10.5-2,22.1-13.1,22.1c-10.9,0-13.3-11.5-13.3-22.1C438.9,443.8,441,431.6,452.2,431.6 M495.4,480.1
	c7.4,0,12.7-2,15.9-4.1v-46.8h-5V474c-2.7,1.6-5.9,2.4-10.4,2.4c-7.9,0-11.7-5.1-11.7-12.1v-35h-5v35.2
	C479.3,473.5,483.6,480.1,495.4,480.1 M541,428.3c-10.9,0-14.2,1.2-18.8,3.5v47.3h5v-45c2.8-2,7.9-2.6,12.3-1.4L541,428.3z
	 M604.4,451.6c0-16.6-7.1-23.3-17.8-23.3c-10.5,0-18.9,8.1-18.9,25.7c0,18.7,9.3,26,21.4,26c5.9,0,10.9-1.6,13.6-3.2l-1.6-3.6
	c-2.5,1.5-6.4,3-11.9,3c-9.9,0-16-6.6-16.7-19.8L604.4,451.6z M586.4,432c8.1,0,13,4.6,13,17.1l-27.2,4.2
	C572.3,438.1,578.5,432,586.4,432 M614.1,479.1h5v-72.6h-5V479.1z M665.5,451.6c0-16.6-7.1-23.3-17.8-23.3
	c-10.4,0-18.9,8.1-18.9,25.7c0,18.7,9.3,26,21.4,26c5.9,0,10.9-1.6,13.6-3.2l-1.6-3.6c-2.5,1.5-6.4,3-11.9,3
	c-9.9,0-16-6.6-16.7-19.8L665.5,451.6z M647.6,432c8,0,13,4.6,13,17.1l-27.2,4.2C633.4,438.1,639.6,432,647.6,432 M690.5,480
	c5.3,0,8.9-1.6,10.7-3.1l-1.5-3.4c-2,1.5-4.7,2.7-8.4,2.7c-9.2,0-13.9-9.3-13.9-22.3c0-12.4,3.8-21.8,14.2-21.8
	c4.2,0,6.7,1.4,8.2,2.6l1.4-3.1c-1.3-1-4.3-3.2-10.4-3.2c-11.1,0-18.5,9.7-18.5,25.9C672.4,469.9,680.1,480,690.5,480 M722.6,479.4
	c1.3,0,2.3-0.2,3.2-0.5v-3.2l-2,0.2c-5.3,0-7.2-3.8-7.2-7.9v-35.9h9.2v-2.9h-9.2v-13.8l-5,1.8v11.9h-5.8v3h5.8v35.5
	C711.5,473.1,714.2,479.4,722.6,479.4 M752,428.3c-10.9,0-14.2,1.2-18.8,3.5v47.3h5v-45c2.8-2,7.9-2.6,12.3-1.4L752,428.3z
	 M761.2,418.6c1.8,0,3.3-1.5,3.3-3.3c0-1.8-1.5-3.3-3.3-3.3c-1.8,0-3.3,1.5-3.3,3.3C757.9,417.1,759.3,418.6,761.2,418.6
	 M758.7,479.1h5v-49.8h-5V479.1z M791.4,480c5.3,0,8.9-1.6,10.7-3.1l-1.5-3.4c-2,1.5-4.7,2.7-8.4,2.7c-9.2,0-13.9-9.3-13.9-22.3
	c0-12.4,3.8-21.8,14.1-21.8c4.2,0,6.7,1.4,8.2,2.6l1.4-3.1c-1.3-1-4.3-3.2-10.4-3.2c-11.1,0-18.5,9.7-18.5,25.9
	C773.3,469.9,781,480,791.4,480 M812.9,418.6c1.9,0,3.3-1.5,3.3-3.3c0-1.8-1.5-3.3-3.3-3.3c-1.8,0-3.3,1.5-3.3,3.3
	C809.5,417.1,811,418.6,812.9,418.6 M810.4,479.1h5v-49.8h-5V479.1z M840.8,479.4c1.3,0,2.3-0.2,3.1-0.5v-3.2l-2,0.2
	c-5.3,0-7.2-3.8-7.2-7.9v-35.9h9.2v-2.9h-9.2v-13.8l-5,1.8v11.9h-5.8v3h5.8v35.5C829.7,473.1,832.4,479.4,840.8,479.4 M884.8,429.3
	h-4.5l-12.4,39.3c-0.9,3.1-1.4,5.6-1.4,5.6h-0.2c0,0-0.3-2.6-1.2-5.6l-12-39.3h-5.4l16.8,49.8l-8.3,19.9h5.6L884.8,429.3z"/>
</svg>
