<?xml version="1.0" encoding="utf-8"?>
<!-- Generator: Adobe Illustrator 21.0.2, SVG Export Plug-In . SVG Version: 6.00 Build 0)  -->
<svg version="1.1" id="Layer_1" xmlns="http://www.w3.org/2000/svg" xmlns:xlink="http://www.w3.org/1999/xlink" x="0px" y="0px"
	 viewBox="0 0 1054.3 197.1" style="enable-background:new 0 0 1054.3 197.1;" xml:space="preserve">
<path class="st0" d="M857.6,0h196.7v197.1H857.6V0L857.6,0z M885.1,27.2v142.4h141.7V27.2H885.1L885.1,27.2z M901.7,149h36
	l73.2-105.5l-38.3,0.8L901.7,149L901.7,149z M0,195.9V116h34.1c10.8,0,19,4.3,25.2,12.8c5,7.4,7.7,16.3,7.7,27.2
	c0,10.5-2.7,19.8-8.5,27.6c-6.2,8.1-14.3,12.4-24.4,12.4H0L0,195.9z M16.6,130.4v51.2h15.5c6.2,0,10.5-2.7,13.5-7.8
	c2.7-4.7,3.9-10.5,3.9-17.8c0-6.2-1.2-12-3.9-16.7c-3.1-6.2-7.7-8.9-13.5-8.9H16.6L16.6,130.4z M115,177.3h15.5
	c-1.2,6.6-4.6,11.3-10.1,15.1c-4.6,3.1-10.5,4.7-17.4,4.7c-8.1,0-14.7-3.1-19.7-8.9c-5.4-5.8-8.1-13.2-8.1-22.5
	c0-8.1,2.7-15.1,7.7-20.6c5.4-5.4,12-8.5,20.1-8.5c11.6,0,19.4,4.3,23.6,12.4c1.5,2.7,2.7,6.2,3.5,9.7c0.8,3.9,1.2,7.8,1.2,12H91
	c0,3.1,1.2,5.8,3.1,8.5c2.7,3.1,5.4,4.7,8.9,4.7c2.7,0,5.4-0.8,7.4-1.5C112.7,181.2,114.2,179.6,115,177.3L115,177.3z M91,160.6h24
	c0-2.7-1.2-5.4-3.5-7.4c-2.7-2.3-5.4-3.5-8.5-3.5c-3.1,0-5.8,1.2-8.1,3.5C92.1,155.2,91,157.9,91,160.6L91,160.6z M140.9,137.7h15.5
	v38.4c0,1.9,1.2,3.9,2.7,5.4c1.9,1.5,4.3,2.3,6.6,2.3c3.1,0,5.8-0.8,8.1-2.7c2.3-2.3,3.5-4.7,3.5-7.4v-36.1h15.1v58.2h-15.1v-7.4
	c-4.6,5.8-10.5,8.5-17.4,8.5c-5,0-9.3-1.5-12.8-3.9c-3.9-2.7-6.2-6.6-6.2-11.3V137.7L140.9,137.7z M223,121v16.7h8.9v10.9H223v29.9
	c0,1.2,0.8,2.3,1.5,3.1c0.8,0.8,1.9,1.2,3.5,1.2c0.8,0,1.5,0,2.3,0c0.8-0.4,1.2-0.4,1.5-0.4v13.6c-1.9,0.4-3.9,0.8-5,0.8
	c-1.5,0.4-3.5,0.4-6.2,0.4c-3.9,0-6.6-1.2-9.3-3.9c-2.3-2.3-3.5-5-3.5-8.5v-36.1h-7.7v-10.9h7.7V130L223,121L223,121z M238.5,176.1
	H254c0,2.7,0.8,5,3.1,6.6c1.9,1.5,4.6,2.3,7.7,2.3c2.7,0,5-0.4,6.6-1.2c1.9-0.8,3.1-2.7,3.1-5c0-3.1-2.7-5.4-8.9-7
	c-10.1-2.7-15.9-4.3-16.6-5c-6.2-2.7-9.3-6.6-9.3-12c0-5.4,2.3-9.7,6.6-13.2c4.3-3.5,10.1-5,17-5c7,0,12.4,1.6,17,4.7
	c5,3.5,7.7,8.1,7.7,14.7h-14.3c-0.4-2.3-1.5-4.3-3.5-5.4c-1.9-1.2-4.3-1.9-7-1.9c-2.3,0-4.3,0.8-5.8,1.6c-1.5,1.2-2.3,2.3-2.3,4.3
	c0,2.3,3.1,4.3,8.9,5.4c8.9,1.5,14.7,2.7,16.6,3.9c6.2,2.7,9.3,7.4,9.3,14c0,6.6-2.7,11.6-8.1,14.7c-4.6,3.1-10.1,4.7-17,4.7
	c-7.7,0-13.9-1.9-19-5.8C240.8,187.8,238.5,182.7,238.5,176.1L238.5,176.1z M326,197.1c-8.1,0-14.7-3.1-20.1-8.9
	c-5-5.8-7.7-13.2-7.7-22.5c0-7.8,2.7-14.7,8.1-20.6c5.4-5.4,12-8.5,19.7-8.5c7,0,13.2,2.3,18.2,6.6c5.4,3.9,8.1,9.3,8.1,15.5h-15.5
	c0-2.7-1.2-4.7-3.1-6.2c-2.3-1.9-4.6-2.7-7.7-2.7c-3.9,0-6.6,1.5-8.9,4.7c-1.9,2.7-3.1,6.6-3.1,11.3c0,5.4,1.2,9.7,3.1,13.2
	c2.3,3.1,5,5,8.9,5c2.7,0,5.4-1.2,7.4-3.1c2.3-1.9,3.5-3.9,3.5-6.6h15.5c0,6.6-2.7,12.4-8.1,16.7C338.8,194.8,333,197.1,326,197.1
	L326,197.1z M362.4,116h15.5v27.9c1.9-2.7,4.6-4.7,7.7-5.8c3.1-0.8,6.6-1.6,10.1-1.6c5,0,9.7,1.6,13.5,4.7c3.9,2.7,5.8,7,5.8,11.6
	v43.1H400v-36.5c0-3.1-1.2-5.4-2.7-7c-1.5-1.6-3.9-2.3-6.6-2.3c-3.1,0-6.2,0.8-8.9,2.7c-2.3,1.9-3.9,4.3-3.9,7.4v35.7h-15.5V116
	L362.4,116z M465,177.3h15.1c-1.2,6.6-4.6,11.3-10.1,15.1c-4.6,3.1-10.5,4.7-17,4.7c-8.1,0-14.7-3.1-20.1-8.9
	c-5.4-5.8-7.7-13.2-7.7-22.5c0-8.1,2.3-15.1,7.7-20.6c5-5.4,12-8.5,20.1-8.5c11.2,0,19,4.3,23.2,12.4c1.9,2.7,3.1,6.2,3.9,9.7
	c0.8,3.9,0.8,7.8,0.8,12h-40.3c0,3.1,1.2,5.8,3.5,8.5c2.3,3.1,5.4,4.7,8.9,4.7c2.7,0,5-0.8,7.4-1.5
	C462.3,181.2,463.8,179.6,465,177.3L465,177.3z M440.6,160.6H465c0-2.7-1.5-5.4-3.9-7.4c-2.3-2.3-5-3.5-8.1-3.5
	c-3.1,0-6.2,1.2-8.5,3.5C442.2,155.2,440.6,157.9,440.6,160.6L440.6,160.6z M519.2,195.9V116h40.7c5.8,0,10.8,1.9,14.7,6.2
	c4.3,4.3,6.6,9.3,6.6,15.5c0,3.5-0.8,6.6-2.3,9.7c-1.9,3.1-4.6,5.4-7.7,7c3.9,1.6,7,4.3,9.7,7.4c2.3,3.5,3.5,7,3.5,10.9
	c0,6.6-2.3,12-6.6,16.3c-4.3,4.7-8.9,7-15.1,7H519.2L519.2,195.9z M535.5,130.4v17.1h19.7c2.7,0,5-0.8,7-2.3
	c1.9-1.6,2.7-3.5,2.7-5.8c0-2.7-0.8-4.7-2.7-6.6c-1.9-1.6-3.9-2.3-6.6-2.3H535.5L535.5,130.4z M535.5,161.8v19.8h20.9
	c3.1,0,5.4-0.8,7.7-3.1c1.9-1.9,3.1-4.3,3.1-7c0-2.7-1.2-5-3.1-7c-2.3-1.9-4.6-2.7-7.7-2.7H535.5L535.5,161.8z M611.4,155.2h-15.5
	c0-6.2,2.7-10.9,7.8-14.4c4.6-2.7,10.1-4.3,16.6-4.3c8.9,0,15.5,1.6,19.7,4.3c3.5,2.7,5.4,5.8,5.4,10.1v35.7c0,3.5,1.2,6.6,3.5,9.3
	H633c-0.8-1.2-1.5-1.9-1.9-3.1c-0.4-0.8-0.8-1.9-1.2-3.5c-1.9,2.7-4.7,4.7-7.8,5.8c-2.7,1.2-6.2,1.9-10.4,1.9c-5.4,0-9.7-1.9-12.8-5
	c-3.5-3.5-5.4-7.8-5.4-12.4s1.6-8.9,4.3-12c2.7-3.1,6.6-5,11.6-5.8c8.9-1.6,13.2-2.3,13.5-2.3c4.7-1.2,7-2.7,7-4.3
	c0-2.3-0.8-4.3-2.7-5c-1.5-1.2-3.9-1.6-7-1.6c-2.7,0-4.6,0.8-6.6,1.6C612.1,151.3,611.4,152.9,611.4,155.2L611.4,155.2z
	 M629.9,176.1v-8.9c-5,0.8-8.9,1.9-12,2.7c-5.8,1.5-8.5,4.3-8.5,7.8c0,2.7,0.4,4.3,1.9,5.4c1.5,1.2,3.5,1.6,6.2,1.6
	c2.7,0,5.4-0.8,7.7-2.3C627.6,181.2,629.2,178.9,629.9,176.1L629.9,176.1z M659,137.7h15.5v6.6c1.9-2.3,4.3-4.3,7.4-5.8
	c3.5-1.2,6.6-1.9,9.3-1.9c5.4,0,9.7,1.6,13.5,3.9c3.9,3.1,6.2,7,6.2,11.6v43.8h-15.5v-38.4c0-2.3-0.8-4.3-2.3-5.4
	c-1.9-1.6-3.9-1.9-6.2-1.9c-3.1,0-5.4,0.4-7.4,1.5c-1.9,1.6-3.5,3.1-5,5.8v38.4H659V137.7L659,137.7z M723.2,116h15.5v42.7
	l17.8-20.9h18.6l-19,22.1l20.9,36.1h-18.2l-13.2-24.8l-7,7.4v17.5h-15.5V116L723.2,116z"/>
</svg>
