<?xml version="1.0" encoding="utf-8"?>
<!-- Generator: Adobe Illustrator 21.0.2, SVG Export Plug-In . SVG Version: 6.00 Build 0)  -->
<svg version="1.1" id="Layer_1" xmlns="http://www.w3.org/2000/svg" xmlns:xlink="http://www.w3.org/1999/xlink" x="0px" y="0px"
	 viewBox="0 0 1279.1 546.8" style="enable-background:new 0 0 1279.1 546.8;" xml:space="preserve">
<path class="st0" d="M18.4,46.2c0,88.6,0,177.2,0,266c-6.3,0-12.3,0-18.4,0c0-103,0-205.9,0-309.3c3.9,0,7.8-0.2,11.6,0.1
	c1,0.1,2,1.4,2.7,2.3c23.8,33.4,47.5,66.7,71.3,100.1c38.2,53.8,76.5,107.5,114.8,161.3c0.7,0.9,1.4,1.9,2.6,3.4
	c0-89.5,0-178.1,0-267c6.3,0,12.2,0,18.5,0c0,86.6,0,173.1,0,259.7c0.2,0.1,0.5,0.1,0.7,0.2c0.4-1,0.9-2,1.3-3
	C257.2,175.5,291,90.9,324.6,6.2c1.1-2.6,2.3-3.6,5.1-3.5c6.9,0.2,6.9,0.1,9.4,6.5c32.6,83.4,65.2,166.9,97.8,250.3
	c0.4,1,0.8,1.9,1.7,2.8c0-86.3,0-172.6,0-259.2c6.3,0,12.4,0,18.6,0c0,103,0,205.9,0,309.3c-5.8,0-11.6,0.1-17.4-0.1
	c-0.8,0-1.9-1.8-2.4-2.9c-10.4-25.6-20.8-51.3-31.2-76.9c-2.6-6.5-2.6-6.5-9.8-6.5c-45.3,0-90.6,0-135.9-0.1c-2.9,0-4.1,0.9-5.1,3.5
	c-10.8,26.7-21.8,53.4-32.7,80.2c-0.9,2.3-2.1,2.7-4.4,3.1c-7.3,1.1-11.4-1.9-15.6-7.9c-60.3-85.4-121-170.6-181.5-255.8
	c-0.7-0.9-1.4-1.9-2.1-2.8C18.9,46.1,18.7,46.1,18.4,46.2z M395.7,206.3c-21.5-55.7-42.8-110.8-64.4-166.8
	c-22.3,56.2-44.1,111.4-66.1,166.8C308.8,206.3,351.9,206.3,395.7,206.3z M1279.1,272c-4.5-4.8-9-9.7-13.3-14.4
	c-4.6,3.9-8.8,7.7-13.2,11.2c-46.6,36.9-106,32.9-147,2c-34.3-25.9-51.2-61.3-53.3-103.7c-2.3-46.9,13.8-86.8,49.8-117.6
	c43.1-36.9,109.3-40.6,155.4-1.3c2.7,2.3,5.4,4.5,8.1,6.9c4.4-4.7,8.5-9.2,12.8-13.8c-28.3-26.5-61-42.1-100.1-41.1
	c-57.5,1.5-98.2,30.6-126.9,79.8c0-26,0-51.4,0-76.8c-6.4,0-12.4,0-18.7,0c0,88.9,0,177.5,0,267c-1.2-1.6-1.9-2.6-2.6-3.5
	c-32.7-46-65.5-92-98.2-138.1c-29.2-41-58.4-82-87.6-123c-0.7-1-1.7-2.4-2.7-2.5c-3.9-0.3-7.9-0.1-11.8-0.1c0,103.4,0,206.3,0,309.3
	c6.2,0,12.2,0,18.6,0c0-88.9,0-177.7,0-267.1c1,1.3,1.5,2,2,2.7c46.6,65.6,93.2,131.1,139.7,196.7c15.5,21.9,31.1,43.8,46.7,65.6
	c0.7,1,1.8,2.1,2.8,2.2c3.8,0.3,7.7,0.1,11.8,0.1c0-25.7,0-51.1,0-76.5C1102.1,329.6,1219.4,339.1,1279.1,272z M788.4,2.4
	c-48.6,0-97.3-0.1-145.9,0.1c-7.7,0-15.5,0.7-23.2,2c-40.2,7-64.5,34.4-67,70c-1.4,19.4,2.1,37.6,14.8,53.2
	c9.5,11.7,21.9,19.5,35.8,24.8c16,6,32.4,11,48.6,16.4c14.7,4.9,29.3,10.3,42.1,19.3c20.9,14.7,25.6,38.1,21.3,57.1
	c-4.3,18.9-16.7,31.2-34.1,38.7c-15.6,6.7-32,8.2-48.7,8.3c-38.2,0.1-76.4,0-114.5,0c-1.1,0-2.3-0.1-3.8-0.2c0-96.5,0-192.6,0-288.8
	c-6.2,0-12.1,0-18.1,0c0,103.1,0,206,0,309.2c0.9,0,1.6,0.1,2.4,0.1c47.8,0,95.6,0.1,143.3-0.2c15.6-0.1,30.9-2.8,45.4-8.9
	c29.4-12.4,45.9-34.7,48-66.3c1.9-27.7-8.8-50.3-31.9-66.5c-14.5-10.1-30.7-16.3-47.3-21.9c-16.4-5.6-33.1-10.5-49.1-17
	c-20.2-8.3-33.8-22.5-35.5-45.8c-1.7-22.4,9-43,28.8-53.8c13.1-7.1,27.3-9.6,42.1-9.6c42.5-0.1,85,0,127.5,0c1.1,0,2.3,0.1,3.8,0.2
	c0,96.8,0,193.2,0,289.6c6.3,0,12.3,0,18.3,0c0-103.3,0-206.3,0-309.6C790.3,2.5,789.4,2.4,788.4,2.4z M983.7,524
	c-0.7-0.9-1.4-1.8-2.1-2.7c-17.7-23.9-35.5-47.8-53.2-71.7c-0.8-1-1.9-2.2-3.1-2.4c-3.1-0.6-4.4,0.8-4.4,4.6c0,29.6,0,59.1,0,88.7
	c0,0.9-0.1,1.8,0.2,2.6c0.3,0.8,1,1.8,1.7,2.1c4.5,1.9,7.5-0.2,7.5-5.1c0-22.8,0-45.5,0-68.3c0-1.1,0.1-2.1,0.2-4
	c1.2,1.6,1.9,2.5,2.5,3.3c18.1,24.4,36.2,48.9,54.3,73.3c0.7,0.9,1.8,2,2.8,2.2c2.7,0.6,3.7-0.8,3.7-4.5c0-29.6,0-59.1,0-88.7
	c0-0.8,0.2-1.6-0.1-2.2c-0.3-0.8-0.8-1.9-1.6-2.3c-4.1-2.1-7.8,0.1-7.8,4.7c0,16.6-0.1,33.2-0.1,49.8c0,6.8,0,13.6,0,20.4
	C984.2,523.9,984,524,983.7,524z M511.2,471.1c18,24.3,36.1,48.7,54.1,73c1.2,1.6,2.3,3.2,4.6,2.5c2.4-0.7,2-2.7,2-4.5
	c0-29.5,0-59.1,0-88.6c0-0.8,0.2-1.6-0.1-2.2c-0.5-0.9-1.3-2.2-2.2-2.4c-5-1.5-7.1,0.1-7.1,5.2c0,22.1,0,44.2,0,66.3
	c0,1.2,0,2.4,0,3.7c-1.4-0.8-2.1-1.6-2.8-2.5c-17.7-23.9-35.5-47.7-53.1-71.7c-1.5-2.1-3.1-3.3-5.6-2.4c-2.5,0.9-2,3-2,4.9
	c0,23.7,0,47.4,0,71.2c0,5.9-0.1,11.9,0.1,17.8c0,1.3,0.7,3.2,1.7,3.8c4.1,2.2,7.6-0.1,7.6-4.8c0-22.7,0-45.5,0-68.2
	c0-1.1,0.1-2.3,0.2-4.1C509.8,469.3,510.5,470.2,511.2,471.1z M638.8,496.8c0-14.4,0-28.9,0-43.3c0-4.4,0.4-4.8,4.8-4.8
	c7.9,0,15.8,0.2,23.6,0c24.2-0.9,40.5,16.6,45.5,34.2c6.9,24.4-5.1,50.8-27.5,59.4c-4.8,1.8-10.2,2.7-15.4,3
	c-8.8,0.5-17.7,0.1-26.5,0.1c-3.8,0-4.4-0.6-4.4-4.5C638.8,526.1,638.8,511.4,638.8,496.8z M648.8,457.6c0,26.4,0,52.2,0,77.9
	c8.1,0,16,0.6,23.8-0.1c11.8-1.2,20.8-7.4,26.3-18c6.8-13.2,6.9-26.7,0.5-40.1c-4.8-10-12.9-16.7-23.9-18.4
	C666.8,457.6,657.8,458,648.8,457.6z M438.7,498.4c-0.2,12.3-4.5,24.3-13.9,34.3c-19.2,20.3-51.2,18.2-68-4.4
	c-13.4-18.1-13.4-44.5,0.1-62.6c21.1-28.3,62.6-23.2,77.2,9.5C437.2,482.2,438.7,489.5,438.7,498.4z M355.1,497.3
	c1.1,4.9,1.7,10,3.4,14.7c9.5,26.5,41.1,33.5,60.1,13.6c16.6-17.4,14.3-46.7-4.8-61.4c-13.9-10.6-32.6-9.6-45.2,2.5
	C360.1,475,356,485.2,355.1,497.3z M768.7,497c0.2-13.9,4.6-26.2,14.4-36.3c17.9-18.4,46.4-18,63.9,0.9c17,18.3,18.2,47.9,2.8,67.5
	c-21.8,27.8-63.6,21.5-77.2-11.6C770,511,768.7,504.1,768.7,497z M777.7,498.1c0.2,1.6,0.3,4.4,0.9,7.2c0.4,2.3,1.1,4.6,1.9,6.8
	c9.7,26.2,41.1,33.3,60,13.5c16.1-16.8,14.6-45.1-3.1-60.2c-14.3-12.2-34.1-11.4-47.4,1.8C781.8,475.5,777.9,485.5,777.7,498.1z
	 M260.8,531.7c0-26.3,0-52.6,0-78.9c0-3.7-0.6-4.2-4.4-4.2c-4.7,0-5.3,0.3-5.3,3.6c0,29.9,0,59.7,0,89.6c0,2.6,1.1,3.6,3.7,3.6
	c13.9-0.1,27.8-0.1,41.7,0c3.5,0,3.7-2.1,3.7-4.7c0-2.7-0.4-4.6-3.8-4.6c-10.6,0.1-21.1,0-31.7,0c-1.2,0-2.3,0-3.9,0
	C260.8,534.3,260.8,533,260.8,531.7z"/>
</svg>
