<?xml version="1.0" encoding="utf-8"?>
<!-- Generator: Adobe Illustrator 21.0.2, SVG Export Plug-In . SVG Version: 6.00 Build 0)  -->
<svg version="1.1" id="Layer_1" xmlns="http://www.w3.org/2000/svg" xmlns:xlink="http://www.w3.org/1999/xlink" x="0px" y="0px"
	 viewBox="0 0 3294 248" style="enable-background:new 0 0 3294 248;" xml:space="preserve">
<title>01.NAP_LOGO_White_and_Black</title>
<desc>Created with Sketch.</desc>
<g id="Page-1">
	<g id="_x30_1.NAP_x5F_LOGO_x5F_White_x5F_and_x5F_Black">
		<g id="N" transform="translate(0.000000, 5.000000)">
			<path id="Shape" class="st0" d="M209.7,238.5V0.5H176v181.9L34.3,2.5l0,0c-0.4-0.5-1-0.9-1.5-1.3c-0.7-0.4-1.5-0.7-2.3-0.7h-0.1
				H0.4v238h32.7V57.3l141.7,178.9l0,0c0.5,0.6,1.1,1.1,1.9,1.5c0.8,0.5,1.6,0.7,2.5,0.8h0.1L209.7,238.5z"/>
		</g>
		<g id="E" transform="translate(301.000000, 5.000000)">
			<polygon id="Shape_1_" class="st0" points="1.1,238.5 1.1,0.5 156.5,0.5 156.5,33.8 34,33.8 34,102.4 144.2,102.4 144.2,131.7 
				34,131.7 34,205.7 165.7,205.7 165.7,238.5 			"/>
		</g>
		<g id="T" transform="translate(553.000000, 5.000000)">
			<polygon id="Shape_2_" class="st0" points="128,33.7 128,238.6 95,238.6 95,33.7 0.9,33.7 0.9,0.5 222.2,0.5 222.2,33.7 			"/>
		</g>
		<g id="_-" transform="translate(841.000000, 121.000000)">
			<rect id="Rectangle-path" x="0.6" y="0.8" class="st0" width="120" height="29.1"/>
		</g>
		<g id="A" transform="translate(1049.000000, 4.000000)">
			<path id="Shape_3_" class="st0" d="M126.2,44.5l-40,88.2h80.1L126.2,44.5z M213.7,240.1l-34.1-77.5H72.6l-35.4,77.5h-36L109.5,2
				l16.7-1l16.7,1l106.8,238.1L213.7,240.1z"/>
		</g>
		<g id="_--2" transform="translate(1386.000000, 121.000000)">
			<rect id="Rectangle-path_1_" x="1.1" y="0.8" class="st0" width="120" height="29.1"/>
		</g>
		<g id="P" transform="translate(1637.000000, 5.000000)">
			<path id="Shape_4_" class="st0" d="M130.8,33.5H29.7v68.8h101.2c19.4,0.1,37.6-10.8,37.6-33.8C168.5,44.9,150.7,35.3,130.8,33.5
				 M130.8,137.4H30v101.1H0.8V0.5h130c42.1,0,66.7,25.2,66.7,68C197.6,110.6,172.6,137.4,130.8,137.4"/>
		</g>
		<g id="O" transform="translate(1897.000000, 0.000000)">
			<path id="Shape_5_" class="st0" d="M130.3,214.6c54,0,96.6-37.6,96.6-90.2c0-53-42.5-90.7-96.6-90.7c-53.6,0-96.6,37.4-96.6,90.4
				C33.7,176.6,76.7,214.6,130.3,214.6 M130.1,0.5c79.4,0,129.5,56.5,129.5,123.6c0,65-48.7,123.5-130.2,123.5
				C50.7,247.5,1,189.3,1,124C1,57.3,52.1,0.5,130.1,0.5"/>
		</g>
		<g id="R" transform="translate(2239.000000, 5.000000)">
			<path id="Shape_6_" class="st0" d="M129.7,33.6H29.8v70.9h99.9c20-2.1,37.7-11.7,37.7-36.9C167.4,48.4,152.3,35,129.7,33.6
				 M148.7,136.9l62.7,101.7h-39.3l-61.4-101.1H29.7v101.2H1.1V0.6h128.6c43.4,0,68.1,28.2,68.1,68.9
				C197.8,105.6,184.8,125.7,148.7,136.9"/>
		</g>
		<g id="T-2" transform="translate(2513.000000, 5.000000)">
			<polygon id="Shape_7_" class="st0" points="128.3,35.6 128.3,238.8 94.5,238.8 94.5,35.6 1.3,35.6 1.3,0.8 222.6,0.8 222.6,35.6 
							"/>
		</g>
		<g id="E-2" transform="translate(2825.000000, 5.000000)">
			<polygon id="Shape_8_" class="st0" points="1,238.5 1,0.5 156.5,0.5 156.5,33.8 34,33.8 34,102.4 144.1,102.4 144.1,131.7 
				34,131.7 34,205.7 165.7,205.7 165.7,238.5 			"/>
		</g>
		<g id="R-2" transform="translate(3083.000000, 5.000000)">
			<path id="Shape_9_" class="st0" d="M129.1,33.6H29.2v70.9h99.9c20-2.1,37.7-11.7,37.7-36.9C166.8,48.4,151.7,35,129.1,33.6
				 M148.1,136.9l62.7,101.7h-39.2l-61.4-101.1H29.2v101.2H0.4V0.6h128.6c43.4,0,68.1,28.2,68.1,68.9
				C197.2,105.6,184.2,125.7,148.1,136.9"/>
		</g>
	</g>
</g>
</svg>
