<?xml version="1.0" encoding="utf-8"?>
<!-- Generator: Adobe Illustrator 21.0.2, SVG Export Plug-In . SVG Version: 6.00 Build 0)  -->
<svg version="1.1" id="Layer_1" xmlns="http://www.w3.org/2000/svg" xmlns:xlink="http://www.w3.org/1999/xlink" x="0px" y="0px"
	 viewBox="0 0 1292 298.4" style="enable-background:new 0 0 1292 298.4;" xml:space="preserve">
<style type="text/css">
	.st0{fill-rule:evenodd;clip-rule:evenodd;}
</style>
<path class="st0" d="M331.6,194.1h29.9c11.7,0,16.1,4,16.1,13.9c0,9.5-4.4,13.5-16.1,13.5h-29.9V194.1L331.6,194.1z M285.3,293.8
	h46.3v-40.5h49.6c32.9,0,44.7-19.4,44.7-44.4c0-29-12.2-45.5-45-45.5h-95.6V293.8L285.3,293.8z"/>
<polygon class="st0" points="441.2,163.4 565.9,163.4 565.9,195.2 487.5,195.2 487.5,212.7 560.3,212.7 560.3,244.5 487.5,244.5 
	487.5,262 565.9,262 565.9,293.8 441.2,293.8 441.2,163.4 "/>
<path class="st0" d="M631.6,194.1h29.9c11.7,0,16.1,4,16.1,13.9c0,9.5-4.4,13.5-16.1,13.5h-29.9V194.1L631.6,194.1z M585.3,293.8
	h46.3v-40.5h49.6c32.9,0,44.7-19.4,44.7-44.4c0-29-12.2-45.5-45-45.5h-95.6V293.8L585.3,293.8z"/>
<path class="st0" d="M770.7,238.5c-22.7-3.8-32-18.5-32-36.7c0-33.8,29.7-42.9,67.8-42.9c52.2,0,73.8,15.2,75.4,42.7h-53.9
	c0-5.3-2.8-8.6-7.1-10.4c-4.1-2-9.4-2.7-14.5-2.7c-13.8,0-18.6,3.8-18.6,9.3c0,3.6,1.5,6,6.1,6.8l55.4,9.1
	c23.3,3.8,37.8,15.9,37.8,38c0,31.8-23.3,46.8-75.4,46.8c-35.6,0-74.6-5.5-74.7-43.8h55.9c0.2,4.4,1.6,7.3,4.9,9.3
	c3.4,1.8,8.5,2.7,15.8,2.7c14.5,0,18.4-4.4,18.4-10.6c0-3.8-2.1-7.7-8.4-8.8L770.7,238.5L770.7,238.5z"/>
<polygon class="st0" points="902.3,163.4 948.6,163.4 948.6,293.8 902.3,293.8 902.3,163.4 "/>
<path class="st0" d="M1120.3,243c-3,17.2-8.2,31-19.7,40.5c-11.3,9.5-29.1,14.8-57.3,14.8c-28.1,0-80.2-2.2-80.2-69.8
	c0-67.6,52.1-69.8,80.2-69.8c27.9,0,71,4,77,55.7h-52.2c-1.3-9.3-6.9-22.8-24.8-22.8c-18.9,0-30.9,10.4-30.9,36.9
	c0,26.5,11.7,36.9,28.6,36.9c14.6,0,23.3-6.8,27.1-22.5H1120.3L1120.3,243z"/>
<path class="st0" d="M1180.9,228.6c0-26.5,12-36.9,30.9-36.9c18.9,0,30.9,10.4,30.9,36.9c0,26.5-12,36.9-30.9,36.9
	C1192.9,265.5,1180.9,255.1,1180.9,228.6L1180.9,228.6z M1131.7,228.6c0,67.6,52.1,69.8,80.2,69.8c28.1,0,80.2-2.2,80.2-69.8
	c0-67.6-52.1-69.8-80.2-69.8C1183.7,158.8,1131.7,161,1131.7,228.6L1131.7,228.6z"/>
<path class="st0" d="M215.3,164.7c3-62.6-51-133-124.5-141.7l0.1-0.9c72.5,0,128.1,67.1,128.1,120.1c-0.1,11-0.9,17.9-2.5,22.8
	L215.3,164.7L215.3,164.7z M210.9,172.6c-4.8,5.9-10.9,11.8-18,17.5c-13.1-75.2-68.4-141-107.4-160.2l-0.8,0.6
	c39.3,32.3,86.2,94.9,104.4,162.6c-8.7,6.4-18.8,12.3-29.9,17.1C122,167.9,87.4,86.4,76.3,34.6l-1.1,0.3
	c0.3,50.2,35.9,135.5,79.4,177.1c-9.7,3.8-20,6.8-30.9,8.5C81.9,204.1,52.3,151.2,52.3,97c0-35.4,10.8-57.3,12.9-61.7l-0.9-0.4
	c-2.5,3.8-18.3,25.7-18.3,63.9c0,61.3,30.2,108.1,70.3,122.8c-13.7,1.5-28.2,1-43-2l-0.3,0.9c4.3,1.6,18.8,7.7,41.1,7.7
	c50.2,0,84.2-31.2,97.9-54.9L210.9,172.6L210.9,172.6z"/>
<path class="st0" d="M109,0C70.9,0,26.3,27.5,26.3,52.6c0,9.7,8.9,17.9,27.3,17.9c42.7,0,82.4-29.3,82.4-52.2
	C135.9,6.4,124.4,0,109,0L109,0z M124.2,17.7c0,19.2-36.9,42.7-67.8,42.7c-13.6,0-21-5.4-21-14.2c0-19.5,37.4-42.6,66.3-42.6
	C120.6,3.6,124.2,13.2,124.2,17.7L124.2,17.7z"/>
<path class="st0" d="M11.1,64.2C10,66.1,5.8,74.5,5.8,83.1c0,15.9,16.1,30.8,45.8,30.8c57,0,122.9-42,122.9-80.9
	c0-17.5-16.6-27-28-29l-0.2,0.7c3.6,1.1,16.7,7.2,16.7,22.8c0,31-58.2,73.3-116.1,73.3c-22.2,0-36.2-10.9-36.2-26.9
	c0-5,1.1-8.4,1.3-9.3L11.1,64.2L11.1,64.2z"/>
<path class="st0" d="M197.9,35.8c1.6,1.2,11,9,11,23.8c0,50.5-79.1,100.1-149,100.1c-41.7,0-60.7-20.6-59.9-38.9h0.7
	c1.6,9.5,15.2,26.5,51.7,26.5c70,0,148.1-51.4,148.1-96.3c0-7.7-2.1-12.5-3.3-14.7L197.9,35.8L197.9,35.8z"/>
<path class="st0" d="M224.3,82.9c0.3,1.1,2,5.9,2,13.5c0,56.1-80,104.2-149.6,104.2c-35.8,0-54.5-17.4-58.5-24.5l0.6-0.5
	c9.9,8.7,29.4,15.3,52.2,15.3c61.5,0,153.2-46.8,152.4-107.8L224.3,82.9L224.3,82.9z"/>
</svg>
