<?xml version="1.0" encoding="utf-8"?>
<!-- Generator: Adobe Illustrator 21.0.2, SVG Export Plug-In . SVG Version: 6.00 Build 0)  -->
<svg version="1.1" id="Layer_1" xmlns="http://www.w3.org/2000/svg" xmlns:xlink="http://www.w3.org/1999/xlink" x="0px" y="0px"
	 viewBox="0 0 1263.7 520.8" style="enable-background:new 0 0 1263.7 520.8;" xml:space="preserve">
<path class="st0" d="M1099.5,397.6v-30h164.2v30h-45v115.6h-74.1V397.6L1099.5,397.6L1099.5,397.6z M205.3,367.6h154.5v30h-80.3V425
	h80.3v30h-80.3v28.2h80.3v30H205.3V367.6z"/>
<path class="st0" d="M1004.2,361c-56.5,0-102.4,27.8-102.4,79.9c0,50.3,45.8,79.9,102.4,79.9c56.5,0,102.4-28.7,102.4-79.9
	C1106.5,387,1060.7,361,1004.2,361z M1019.3,490.8c-26.9,0-48.7-22.4-48.7-49.9c0-27.6,20.9-53.9,47.8-53.9
	c26.9,0,49.6,26.3,49.6,53.9C1068,468.4,1046.2,490.8,1019.3,490.8z"/>
<path class="st0" d="M138.6,367.5H0v145.8h74.1v-32.7l64.4,0.1c31,0,56.2-25.6,56.2-56.6S169.6,367.5,138.6,367.5z M132.5,447.1
	H74.2v-46l58.3,0.1c12.8,0,23.1,10.1,23.1,22.9C155.6,436.8,145.2,447.1,132.5,447.1z"/>
<path class="st0" d="M505.2,452.3c0,15.5-12.6,28.1-28.1,28.1S449,467.9,449,452.3v-84.7h-74.3v89.2c0,48.5,51.2,61.8,86.5,61.8
	s77.7-17.7,79.4-63.5v-87.4h-35.3L505.2,452.3z"/>
<polygon class="st0" points="733.1,367.6 887.6,367.6 887.6,397.6 807.3,397.6 807.3,425 887.6,425 887.6,455 807.3,455 
	807.3,483.2 887.6,483.2 887.6,513.2 733.1,513.2 "/>
<path class="st0" d="M658.5,483c-22.1,0-39.9-20.5-39.9-42.6c0-22.1,17.9-39.1,39.9-39.1h59.6v-33.8l-94.9-0.2
	c-40.3,0-73,32.7-73,73s32.7,73,73,73h94.9v-69.9h-45.9V483L658.5,483z"/>
<path class="st0" d="M726.6,245.8C726.6,245.8,726.6,245.9,726.6,245.8L726.6,245.8L726.6,245.8z"/>
<path class="st0" d="M726.6,245.9c-3,1.7-16.8,6.7-18.5-13c-0.4-7.2-1.9-20.8-4.6-23.1c5.9,1.3,20-3.2,24.8-15.5
	c5.4-13.9,1.1-28.7-12.2-63.9c-12.4-32.8-13-50-13-55.5s1.3-20.2,6.3-24.8c5.1-4.6,5.9,0.4,4.6,3.4c-1.3,2.9-10.5,29.8,15.1,36.1
	c-1-3.1-1.6-6.4-1.7-9.7V52.9c0.4-5.9-4.2-14.3-10.9-15.1c-6.7-0.8-18.9,0.4-21.4,18.1c-0.8-7.6-11.3-43.3-17.2-49.2L658.1,0
	l-36.3,10.3c-3.4,1.3-6.1,2.3-6.9,7.4l-29.4,11.8c-3.4,1.7-3.8,3.4-3.8,8.4c2.1,1.3,2.9,2.5,2.9,5.9V53l16,9.7h10.1
	c0.8-3.4,2.5-8,7.6-8c5,0,8,7.1,8,13h-40.8l5,6.3h35.7c0,3.4-3.4,12.2-8,12.2c-4.6,0-6.3-3.8-7.1-7.2h-11.6l-11.1,16.8l-45.8-52.5
	c-5.9-7.6-13.4-10.5-20.6-10.5h-12.2c-9.7,0-15.8,5-17,15.6c3.8,0.8,3.6,3.8,3.6,6.3v9.7c0,2.5-1.3,5-2.9,5.9
	c-1.7,0.8-1.9,8.4,6.9,9.2c8.8,0.8,12.5,2.2,12.1,17.1c2.9-1.5,6.4-1.4,8.7-0.3c3.8,1.7,17.4,2.6,23.8-1l29.2,41.8l-64.7,6.9
	c-8.8,1.3-13.6,3.5-16.5,16.2c3.4,2.1,4.3,5,4.3,8.4v6.7c0,2.9-1.3,6.7-4.2,8.4c1.7,2.9,5,4.6,7.6,4.6c2.5,0,13.9-2.1,19.7-1.7
	c5.9,0.4,12.6,0,17.2,8.4c4.2,0,10.9-4.2,11.8-23.1h49l7.4,10.6l-30.3,59.6c4.8,4,12,17.4-2.1,25.6l-10.1-13.4
	c-2.5-3.8-5.5-8.8-16-8.8h-9.5c-8,0-14.7,6.5-16,14.5c4,1.5,4.8,3.4,4.8,7.8v14.5c0,3.4-1.7,5.2-4.2,6.1c0,4.6,2.1,10.1,8.8,10.5
	c6.7,0.4,26.5-1.7,29.4,10.9c7.2,0.4,11.3-2.1,16.4-6.7c5-4.6,13.5-5.5,18.5-3.8l46-65.8l30.9,44.3c5.5-4.2,26.9,4.2,18.1,16.8
	c-5.9-1.3-34-6.3-34,8v24c6.3-0.4,10.9-1.7,16.8,6.3c5.9,8,8.4,10.1,15.5,10.5c0.4-3.4,0.8-14.7,22.3-13c5.9,0.4,16.4,1.7,19.3-3.4
	c-1.7-2.5-3.8-2.9-3.8-13.4V245.9z M696.2,103.7l21,58.4c6.7,19.7,2.3,29.6-4.8,34.7c-7.1,5-14.9,2.1-18.3-2.9l-19.1-27.1
	C687.1,150.8,697.2,111.9,696.2,103.7z M715.7,319.4h-17.3c-9.2,0-13,4.6-14.3,8.8c-5.5-8-12.6-10.9-16.8-10.9v-7.6
	c0-12.6,24.4-5.9,29.8-4.2c19.8-24.4-12.6-42.4-19.7-37.8l-35.7-52.1l-50.8,72.7c-8-1-20.2,3.8-23.1,8.4c-6.3-7.8-22.5-8-31.1-8.4
	v-24.8c0-3.6,0.5-7.5,7.9-7.5c7.3,0,8.1,2,10.2,4.5l13,18.5c29.8-3.1,25.2-32.8,20.2-38.2l29.8-58.8l-14-20.2h-66.3
	c3.8,7.6,1.7,17.4-0.4,20c-7.8-6.9-23.1-5.7-30.3-5.3v-14.7c0-7.1,2.5-7.1,7.1-8l78.3-8.4l-43.8-63c-5.7,5.9-20.6,4.6-26.1,3.4
	c-1.7-10.5-8.8-14.7-16-14.7V49.6c0-5.9,3.4-6.7,7.1-6.7h9c5.9,0,9,3.6,12,7.1l54.6,63L606,87.8c2.1,3.4,7.6,7.6,12.6,7.6
	c6.7,0,18.5-8,18.5-25.2c0-17.2-10.5-24.4-18.5-24.4s-12.2,3.8-13,5.5c-0.8,1.7-2.5,2.1-5,0.8l-5.9-3.8V37l26.1-10.5
	c1.3-5.5,3.8-5.9,8.4-7.6l31.1-8.8l10.9,5.9c21.9,48.3,23.3,105.9-9.2,151.7l24.8,34.9c12.6,16,11.3,31.9,12.6,42
	c1.3,10.1,12.2,13,16.4,12.6V319.4z"/>
</svg>
