<?xml version="1.0" encoding="utf-8"?>
<!-- Generator: Adobe Illustrator 21.0.2, SVG Export Plug-In . SVG Version: 6.00 Build 0)  -->
<svg version="1.1" id="Layer_1" xmlns="http://www.w3.org/2000/svg" xmlns:xlink="http://www.w3.org/1999/xlink" x="0px" y="0px"
	 viewBox="0 0 489.2 242" style="enable-background:new 0 0 489.2 242;" xml:space="preserve">
<style type="text/css">
	.st0{fill-rule:evenodd;clip-rule:evenodd;}
</style>
<path class="st0" d="M194.1,140.9c-4.5,1.6-9.6,2.6-15.1,2.6c-5.6,0-10.9-1-15.4-2.7l15.3-48.1h0.3L194.1,140.9z"/>
<path class="st0" d="M318.5,96.2c0,14.9-11.3,19.6-25.4,19.6h-10.6V77h10.6C307.3,77,318.5,81.7,318.5,96.2z"/>
<path class="st0" d="M0,0v242h247.2l242-242H0z M298.1,148.9h-15.6v46.2h-71.3l-7.1-22.1c-7.5,2.5-16.1,3.8-25.1,3.8
	c-9.3,0-18-1.5-25.7-4.1l-7.4,22.3h-43.7l4.8-12.9c-0.6,0.5-1.2,1-1.8,1.5c-10.9,8.8-24.5,13.6-41.5,13.9l-2.5,0
	c-19.4,0-38.4-5.4-54.5-14.5l14.9-29.5c16.1,9.5,26.2,11.6,39.9,11.4c7.1-0.1,12.2-1.4,15.5-4.9c2-2.1,3.1-4.7,3.1-7.5
	c0.1-7.7-10.8-11.3-24.1-15.4c-10.8-3.4-23.1-7.9-32.7-15C12,113.9,6.6,103.4,6.9,88.6C7,77.8,11,68.2,18.4,60.5
	C29,49.6,46,42.9,66.5,42.9h0.1c17.6,0,39,5,54.6,12.9L104.4,85c-17-8.2-25.5-9-35.2-9.5c-14.4-0.8-21.7,4.4-21.8,9.9
	C47.3,92.2,61,98.3,74,102.5c19.6,6.3,44.6,14.6,48.4,38.7l35.9-95.7h41.7L242.1,160V45.5l48.1,0c46,0,67.6,16.4,67.6,52.2
	C357.9,129.7,335.7,148.9,298.1,148.9z"/>
<path class="st1" d="M321.7,227.4c2.7-0.3,4.7-1.7,4.7-5c0-3.6-2.1-5.1-6.4-5.1h-6.9v18.1h2.7v-7.8h3.2l4.8,7.8h3.1L321.7,227.4z
	 M315.8,225.2v-5.6h3.7c1.9,0,3.9,0.4,3.9,2.7c0,2.8-2.1,2.9-4.4,2.9H315.8z M321.7,227.4c2.7-0.3,4.7-1.7,4.7-5
	c0-3.6-2.1-5.1-6.4-5.1h-6.9v18.1h2.7v-7.8h3.2l4.8,7.8h3.1L321.7,227.4z M315.8,225.2v-5.6h3.7c1.9,0,3.9,0.4,3.9,2.7
	c0,2.8-2.1,2.9-4.4,2.9H315.8z M321.7,227.4c2.7-0.3,4.7-1.7,4.7-5c0-3.6-2.1-5.1-6.4-5.1h-6.9v18.1h2.7v-7.8h3.2l4.8,7.8h3.1
	L321.7,227.4z M315.8,225.2v-5.6h3.7c1.9,0,3.9,0.4,3.9,2.7c0,2.8-2.1,2.9-4.4,2.9H315.8z M319.2,210.6c-8.7,0-15.9,6.6-15.9,15.7
	c0,9.1,7.3,15.7,15.9,15.7c8.5,0,15.8-6.6,15.8-15.7C335,217.3,327.7,210.6,319.2,210.6z M319.2,239.4c-7.2,0-12.8-5.6-12.8-13.1
	c0-7.4,5.6-13.1,12.8-13.1c7.1,0,12.7,5.6,12.7,13.1C331.8,233.8,326.2,239.4,319.2,239.4z M326.4,222.4c0-3.6-2.1-5.1-6.4-5.1h-6.9
	v18.1h2.7v-7.8h3.2l4.8,7.8h3.1l-5.2-8C324.3,227.1,326.4,225.7,326.4,222.4z M315.8,225.2v-5.6h3.7c1.9,0,3.9,0.4,3.9,2.7
	c0,2.8-2.1,2.9-4.4,2.9H315.8z M321.7,227.4c2.7-0.3,4.7-1.7,4.7-5c0-3.6-2.1-5.1-6.4-5.1h-6.9v18.1h2.7v-7.8h3.2l4.8,7.8h3.1
	L321.7,227.4z M315.8,225.2v-5.6h3.7c1.9,0,3.9,0.4,3.9,2.7c0,2.8-2.1,2.9-4.4,2.9H315.8z M321.7,227.4c2.7-0.3,4.7-1.7,4.7-5
	c0-3.6-2.1-5.1-6.4-5.1h-6.9v18.1h2.7v-7.8h3.2l4.8,7.8h3.1L321.7,227.4z M315.8,225.2v-5.6h3.7c1.9,0,3.9,0.4,3.9,2.7
	c0,2.8-2.1,2.9-4.4,2.9H315.8z M321.7,227.4c2.7-0.3,4.7-1.7,4.7-5c0-3.6-2.1-5.1-6.4-5.1h-6.9v18.1h2.7v-7.8h3.2l4.8,7.8h3.1
	L321.7,227.4z M315.8,225.2v-5.6h3.7c1.9,0,3.9,0.4,3.9,2.7c0,2.8-2.1,2.9-4.4,2.9H315.8z"/>
</svg>
